<svg width="25" height="24" viewBox="0 0 25 24" fill="none" xmlns="http://www.w3.org/2000/svg">
<path fill-rule="evenodd" clip-rule="evenodd" d="M17.1642 2.54224L19.9042 5.28224C20.2721 5.63275 20.4861 6.1148 20.4992 6.62278C20.5123 7.13075 20.3235 7.62321 19.9742 7.99224L10.9742 16.9922C10.6482 17.3155 10.221 17.5167 9.7642 17.5622L5.5942 17.9422H5.5042C5.3726 17.943 5.24213 17.9178 5.1203 17.868C4.99846 17.8182 4.88764 17.7449 4.7942 17.6522C4.69001 17.5484 4.60999 17.4229 4.55986 17.2846C4.50974 17.1463 4.49073 16.9987 4.5042 16.8522L4.9342 12.6822C4.97971 12.2254 5.18097 11.7982 5.5042 11.4722L14.5042 2.47224C14.879 2.15561 15.3571 1.98779 15.8475 2.00069C16.338 2.0136 16.8066 2.20634 17.1642 2.54224ZM5.50415 20C4.95187 20 4.50415 20.4477 4.50415 21C4.50415 21.5523 4.95187 22 5.50415 22H19.5042C20.0564 22 20.5042 21.5523 20.5042 21C20.5042 20.4477 20.0564 20 19.5042 20H5.50415Z" fill="#C0C3CA"/>
</svg>
