<svg width="25" height="24" viewBox="0 0 25 24" fill="none" xmlns="http://www.w3.org/2000/svg">
<path d="M9.05 22.0001C8.58333 22.0001 8.175 21.8584 7.825 21.5751C7.475 21.2918 7.24167 20.9251 7.125 20.4751L6 16.0001H19L17.875 20.4751C17.7583 20.9251 17.525 21.2918 17.175 21.5751C16.825 21.8584 16.4167 22.0001 15.95 22.0001H9.05ZM7.25 2.05011C8.73333 2.23344 9.97933 2.88744 10.988 4.01211C11.996 5.13744 12.5 6.46677 12.5 8.00011C12.5 6.46677 13.004 5.13744 14.012 4.01211C15.0207 2.88744 16.2667 2.23344 17.75 2.05011C17.95 2.01677 18.125 2.07511 18.275 2.22511C18.425 2.37511 18.4833 2.55011 18.45 2.75011C18.2833 4.06677 17.7417 5.19577 16.825 6.13711C15.9083 7.07911 14.8 7.66677 13.5 7.90011V10.0001H20.5C20.7833 10.0001 21.0207 10.0958 21.212 10.2871C21.404 10.4791 21.5 10.7168 21.5 11.0001V13.0001C21.5 13.5501 21.3043 14.0208 20.913 14.4121C20.521 14.8041 20.05 15.0001 19.5 15.0001H5.5C4.95 15.0001 4.479 14.8041 4.087 14.4121C3.69567 14.0208 3.5 13.5501 3.5 13.0001V11.0001C3.5 10.7168 3.596 10.4791 3.788 10.2871C3.97933 10.0958 4.21667 10.0001 4.5 10.0001H11.5V7.90011C10.2 7.66677 9.09167 7.07911 8.175 6.13711C7.25833 5.19577 6.71667 4.06677 6.55 2.75011C6.51667 2.55011 6.575 2.37511 6.725 2.22511C6.875 2.07511 7.05 2.01677 7.25 2.05011Z" fill="#C0C3CA"/>
</svg>
