<svg width="25" height="24" viewBox="0 0 25 24" fill="none" xmlns="http://www.w3.org/2000/svg">
<path d="M20.92 9.76864L13.2101 2.28107C13.1171 2.19201 13.0065 2.12132 12.8846 2.07308C12.7628 2.02484 12.6321 2 12.5001 2C12.368 2 12.2373 2.02484 12.1155 2.07308C11.9936 2.12132 11.883 2.19201 11.7901 2.28107L4.08011 9.77814C3.89355 9.95684 3.74621 10.169 3.64664 10.4022C3.54708 10.6355 3.49727 10.8852 3.50012 11.1369V19.0996C3.49934 19.586 3.69489 20.0542 4.04649 20.4077C4.39809 20.7613 4.87897 20.9732 5.3901 21H10.5001V14.4482C10.5001 14.1962 10.6054 13.9545 10.793 13.7763C10.9805 13.5981 11.2349 13.498 11.5001 13.498H13.5C13.7653 13.498 14.0196 13.5981 14.2071 13.7763C14.3947 13.9545 14.5 14.1962 14.5 14.4482V21H19.61C20.1211 20.9732 20.602 20.7613 20.9536 20.4077C21.3052 20.0542 21.5008 19.586 21.5 19.0996V11.1369C21.5008 10.6266 21.2928 10.136 20.92 9.76864Z" fill="#C0C3CA"/>
</svg>
