<svg width="25" height="24" viewBox="0 0 25 24" fill="none" xmlns="http://www.w3.org/2000/svg">
<path fill-rule="evenodd" clip-rule="evenodd" d="M5.5 5H19.5C20.2485 5 20.9681 5.27972 21.5192 5.78126L12.6662 12.8332C12.6113 12.8653 12.5546 12.88 12.5 12.88C12.4454 12.88 12.3887 12.8653 12.3338 12.8332L3.48079 5.78126C4.03185 5.27972 4.75151 5 5.5 5ZM2.90605 6.49286C2.64236 6.94673 2.5 7.46603 2.5 8V17C2.5 17.7956 2.81607 18.5587 3.37868 19.1213C3.94129 19.6839 4.70435 20 5.5 20H19.5C20.2956 20 21.0587 19.6839 21.6213 19.1213C22.1839 18.5587 22.5 17.7956 22.5 17V8C22.5 7.46603 22.3576 6.94673 22.0939 6.49286L13.2143 13.7719C12.9971 13.9213 12.7508 14 12.5 14C12.2492 14 12.0029 13.9213 11.7857 13.7719L2.90605 6.49286Z" fill="#C0C3CA"/>
</svg>
