<svg width="28" height="28" viewBox="0 0 28 28" fill="none" xmlns="http://www.w3.org/2000/svg">
<g opacity="0.6">
<path fill-rule="evenodd" clip-rule="evenodd" d="M14 24.5C19.799 24.5 24.5 19.799 24.5 14C24.5 8.20101 19.799 3.5 14 3.5C8.20101 3.5 3.5 8.20101 3.5 14C3.5 19.799 8.20101 24.5 14 24.5ZM17.9931 10.9989L14.986 13.9994L17.9931 16.9999C18.0587 17.065 18.1107 17.1423 18.1462 17.2275C18.1817 17.3128 18.2 17.4042 18.2 17.4965C18.2 17.5889 18.1817 17.6803 18.1462 17.7655C18.1107 17.8507 18.0587 17.9281 17.9931 17.9931C17.9281 18.0587 17.8508 18.1107 17.7656 18.1462C17.6803 18.1817 17.5889 18.2 17.4966 18.2C17.4043 18.2 17.3129 18.1817 17.2277 18.1462C17.1425 18.1107 17.0651 18.0587 17.0001 17.9931L14 14.9856L10.9999 17.9931C10.9349 18.0587 10.8575 18.1107 10.7723 18.1462C10.6871 18.1817 10.5957 18.2 10.5034 18.2C10.4111 18.2 10.3197 18.1817 10.2344 18.1462C10.1492 18.1107 10.0719 18.0587 10.0069 17.9931C9.94131 17.9281 9.88929 17.8507 9.85378 17.7655C9.81828 17.6803 9.8 17.5889 9.8 17.4965C9.8 17.4042 9.81828 17.3128 9.85378 17.2275C9.88929 17.1423 9.94131 17.065 10.0069 16.9999L13.014 13.9994L10.0069 10.9989C9.87517 10.8672 9.80119 10.6885 9.80119 10.5023C9.80119 10.316 9.87517 10.1374 10.0069 10.0057C10.1385 9.87399 10.3171 9.8 10.5034 9.8C10.6896 9.8 10.8682 9.87399 10.9999 10.0057L14 13.0132L17.0001 10.0057C17.1318 9.87399 17.3104 9.8 17.4966 9.8C17.6829 9.8 17.8615 9.87399 17.9931 10.0057C18.1248 10.1374 18.1988 10.316 18.1988 10.5023C18.1988 10.6885 18.1248 10.8672 17.9931 10.9989Z" fill="#36332E"/>
</g>
</svg>
