<svg width="40" height="40" viewBox="0 0 40 40" fill="none" xmlns="http://www.w3.org/2000/svg">
<path fill-rule="evenodd" clip-rule="evenodd" d="M31.6666 20C31.6666 20.3788 31.513 20.7421 31.2395 21.01C30.966 21.2778 30.5951 21.4283 30.2084 21.4283H13.3141L19.5754 27.5586C19.711 27.6914 19.8186 27.8491 19.8919 28.0226C19.9653 28.1961 20.0031 28.3821 20.0031 28.5699C20.0031 28.7577 19.9653 28.9437 19.8919 29.1172C19.8186 29.2907 19.711 29.4483 19.5754 29.5811C19.4399 29.7139 19.2789 29.8193 19.1018 29.8911C18.9246 29.963 18.7348 30 18.5431 30C18.3513 30 18.1615 29.963 17.9843 29.8911C17.8072 29.8193 17.6462 29.7139 17.5107 29.5811L8.76164 21.0112C8.62585 20.8786 8.51811 20.721 8.4446 20.5474C8.37109 20.3739 8.33325 20.1879 8.33325 20C8.33325 19.8121 8.37109 19.6261 8.4446 19.4526C8.51811 19.279 8.62585 19.1214 8.76164 18.9888L17.5107 10.4189C17.7845 10.1507 18.1558 10 18.5431 10C18.9303 10 19.3016 10.1507 19.5754 10.4189C19.8492 10.6871 20.0031 11.0508 20.0031 11.4301C20.0031 11.8094 19.8492 12.1732 19.5754 12.4414L13.3141 18.5717H30.2084C30.5951 18.5717 30.966 18.7222 31.2395 18.99C31.513 19.2579 31.6666 19.6212 31.6666 20Z" fill="#36332E"/>
</svg>
