<svg width="24" height="24" viewBox="0 0 24 24" fill="none" xmlns="http://www.w3.org/2000/svg">
<path fill-rule="evenodd" clip-rule="evenodd" d="M3.99999 16.91L4.42999 12.74C4.4755 12.2832 4.67676 11.8559 4.99999 11.53L14 2.52998C14.3748 2.21335 14.8529 2.04553 15.3433 2.05843C15.8338 2.07134 16.3024 2.26408 16.66 2.59998L19.4 5.33998C19.7679 5.69049 19.9818 6.17254 19.995 6.68052C20.0081 7.18849 19.8193 7.68095 19.47 8.04998L10.47 17.05C10.144 17.3732 9.71679 17.5745 9.25999 17.62L5.08999 18H4.99999C4.86838 18.0007 4.73792 17.9755 4.61609 17.9258C4.49425 17.876 4.38343 17.8027 4.28999 17.71C4.18579 17.6062 4.10578 17.4806 4.05565 17.3424C4.00553 17.2041 3.98652 17.0564 3.99999 16.91ZM5.21943 16.7832L9.14493 16.4255C9.32554 16.4066 9.49438 16.3268 9.62367 16.1992L9.62504 16.1979L15.9458 9.87715L12.1478 6.0792L5.85208 12.3749L5.85074 12.3763C5.72223 12.5065 5.64222 12.6768 5.62408 12.8589L5.62367 12.8631L5.62366 12.8631L5.21943 16.7832ZM18.607 7.21589L16.7943 9.02862L12.9963 5.23067L14.8049 3.42217C14.9498 3.31138 15.1286 3.2532 15.3118 3.25802C15.5031 3.26305 15.6861 3.33651 15.8277 3.46478L18.5515 6.18851L18.5617 6.19878L18.5723 6.2088C18.7102 6.34024 18.7904 6.52101 18.7954 6.7115C18.8002 6.89782 18.7326 7.07857 18.607 7.21589ZM4.59998 20.8C4.26861 20.8 3.99998 21.0686 3.99998 21.4C3.99998 21.7314 4.26861 22 4.59998 22H19.4C19.7314 22 20 21.7314 20 21.4C20 21.0686 19.7314 20.8 19.4 20.8H4.59998Z" fill="white"/>
</svg>
