<svg width="24" height="24" viewBox="0 0 24 24" fill="none" xmlns="http://www.w3.org/2000/svg">
<path d="M20.42 9.76864L12.7101 2.28107C12.6171 2.19201 12.5065 2.12132 12.3846 2.07308C12.2628 2.02484 12.1321 2 12.0001 2C11.868 2 11.7373 2.02484 11.6155 2.07308C11.4936 2.12132 11.383 2.19201 11.2901 2.28107L3.58011 9.77814C3.39355 9.95684 3.24621 10.169 3.14664 10.4022C3.04708 10.6355 2.99727 10.8852 3.00012 11.1369V19.0996C2.99934 19.586 3.19489 20.0542 3.54649 20.4077C3.89809 20.7613 4.37897 20.9732 4.8901 21H10.0001V14.4482C10.0001 14.1962 10.1054 13.9545 10.293 13.7763C10.4805 13.5981 10.7349 13.498 11.0001 13.498H13C13.2653 13.498 13.5196 13.5981 13.7071 13.7763C13.8947 13.9545 14 14.1962 14 14.4482V21H19.11C19.6211 20.9732 20.102 20.7613 20.4536 20.4077C20.8052 20.0542 21.0008 19.586 21 19.0996V11.1369C21.0008 10.6266 20.7928 10.136 20.42 9.76864Z" fill="black"/>
</svg>
