<svg width="21" height="20" viewBox="0 0 21 20" fill="none" xmlns="http://www.w3.org/2000/svg">
<path d="M11.8711 7.74166L8.53776 11.075C8.45965 11.1525 8.39766 11.2446 8.35535 11.3462C8.31304 11.4477 8.29126 11.5566 8.29126 11.6667C8.29126 11.7767 8.31304 11.8856 8.35535 11.9871C8.39766 12.0887 8.45965 12.1809 8.53776 12.2583C8.61523 12.3364 8.70739 12.3984 8.80894 12.4407C8.91049 12.483 9.01942 12.5048 9.12943 12.5048C9.23943 12.5048 9.34836 12.483 9.44991 12.4407C9.55146 12.3984 9.64362 12.3364 9.72109 12.2583L13.0544 8.92499C13.2113 8.76807 13.2995 8.55524 13.2995 8.33332C13.2995 8.11141 13.2113 7.89858 13.0544 7.74166C12.8975 7.58474 12.6847 7.49658 12.4628 7.49658C12.2408 7.49658 12.028 7.58474 11.8711 7.74166V7.74166Z" fill="#1F1E1C"/>
<path d="M11.0295 14.4999L9.96284 15.5583C9.36402 16.1753 8.55904 16.5503 7.70141 16.6118C6.84378 16.6733 5.99353 16.4169 5.31284 15.8916C4.95306 15.5952 4.65947 15.2265 4.45103 14.8095C4.2426 14.3925 4.12394 13.9365 4.10274 13.4708C4.08153 13.0051 4.15825 12.5401 4.32793 12.1059C4.49762 11.6717 4.75649 11.2779 5.08784 10.9499L6.27117 9.75828C6.34928 9.68081 6.41127 9.58865 6.45358 9.4871C6.49589 9.38555 6.51767 9.27663 6.51767 9.16662C6.51767 9.05661 6.49589 8.94768 6.45358 8.84614C6.41127 8.74459 6.34928 8.65242 6.27117 8.57495C6.1937 8.49684 6.10153 8.43485 5.99998 8.39254C5.89843 8.35023 5.78951 8.32845 5.6795 8.32845C5.56949 8.32845 5.46057 8.35023 5.35902 8.39254C5.25747 8.43485 5.1653 8.49684 5.08784 8.57495L4.0295 9.64162C3.13797 10.505 2.58999 11.6625 2.48731 12.8993C2.38462 14.136 2.73421 15.3681 3.47117 16.3666C3.90857 16.9341 4.4617 17.4019 5.09383 17.7392C5.72595 18.0764 6.42259 18.2753 7.13748 18.3225C7.85237 18.3698 8.56915 18.2645 9.24018 18.0134C9.91122 17.7624 10.5212 17.3715 11.0295 16.8666L12.2128 15.6833C12.3698 15.5264 12.4579 15.3135 12.4579 15.0916C12.4579 14.8697 12.3698 14.6569 12.2128 14.4999C12.0559 14.343 11.8431 14.2549 11.6212 14.2549C11.3993 14.2549 11.1864 14.343 11.0295 14.4999V14.4999ZM17.1795 2.68328C16.1741 1.93867 14.932 1.58552 13.6852 1.6898C12.4384 1.79409 11.2723 2.34866 10.4045 3.24995L9.5045 4.16662C9.40163 4.2414 9.31562 4.33695 9.25202 4.44708C9.18842 4.55721 9.14865 4.67947 9.1353 4.80594C9.12194 4.93242 9.1353 5.06029 9.17449 5.18127C9.21369 5.30226 9.27785 5.41367 9.36283 5.50828C9.4403 5.58639 9.53247 5.64839 9.63402 5.69069C9.73557 5.733 9.84449 5.75478 9.9545 5.75478C10.0645 5.75478 10.1734 5.733 10.275 5.69069C10.3765 5.64839 10.4687 5.58639 10.5462 5.50828L11.6295 4.41662C12.225 3.79688 13.029 3.41981 13.8863 3.35825C14.7436 3.29669 15.5932 3.555 16.2712 4.08328C16.6336 4.37978 16.9295 4.74933 17.1396 5.16784C17.3497 5.58634 17.4693 6.04442 17.4905 6.51222C17.5117 6.98002 17.4342 7.44705 17.2628 7.88286C17.0915 8.31868 16.8303 8.71351 16.4962 9.04162L15.3128 10.2333C15.2347 10.3108 15.1727 10.4029 15.1304 10.5045C15.0881 10.606 15.0663 10.7149 15.0663 10.8249C15.0663 10.935 15.0881 11.0439 15.1304 11.1454C15.1727 11.247 15.2347 11.3391 15.3128 11.4166C15.3903 11.4947 15.4825 11.5567 15.584 11.599C15.6856 11.6413 15.7945 11.6631 15.9045 11.6631C16.0145 11.6631 16.1234 11.6413 16.225 11.599C16.3265 11.5567 16.4187 11.4947 16.4962 11.4166L17.6795 10.2333C18.183 9.72504 18.5727 9.11562 18.8229 8.4454C19.0731 7.77518 19.178 7.05945 19.1307 6.34562C19.0834 5.63179 18.8851 4.93615 18.5487 4.30477C18.2123 3.6734 17.7456 3.1207 17.1795 2.68328V2.68328Z" fill="#1F1E1C"/>
</svg>
